<mxfile host="app.diagrams.net" modified="2024-03-13T07:10:49.564Z" agent="Mozilla/5.0 (Windows NT 10.0; Win64; x64) AppleWebKit/537.36 (KHTML, like Gecko) Chrome/122.0.0.0 Safari/537.36" etag="hrkjZHWaCh_kV_M6jReC" version="24.0.5" type="device">
  <diagram name="Page-1" id="mssVL0WriyJgOeCOiUHf">
    <mxGraphModel dx="1434" dy="738" grid="1" gridSize="10" guides="1" tooltips="1" connect="1" arrows="1" fold="1" page="1" pageScale="1" pageWidth="850" pageHeight="1100" math="0" shadow="0">
      <root>
        <mxCell id="0" />
        <mxCell id="1" parent="0" />
        <mxCell id="jd0kTKe9EwgRE9TUMlQJ-1" value="" style="rounded=0;whiteSpace=wrap;html=1;" parent="1" vertex="1">
          <mxGeometry x="130" y="20" width="610" height="60" as="geometry" />
        </mxCell>
        <mxCell id="jd0kTKe9EwgRE9TUMlQJ-20" style="edgeStyle=orthogonalEdgeStyle;rounded=0;orthogonalLoop=1;jettySize=auto;html=1;exitX=0.5;exitY=1;exitDx=0;exitDy=0;entryX=0.5;entryY=0;entryDx=0;entryDy=0;" parent="1" source="jd0kTKe9EwgRE9TUMlQJ-2" target="jd0kTKe9EwgRE9TUMlQJ-6" edge="1">
          <mxGeometry relative="1" as="geometry" />
        </mxCell>
        <mxCell id="jd0kTKe9EwgRE9TUMlQJ-21" style="edgeStyle=orthogonalEdgeStyle;rounded=0;orthogonalLoop=1;jettySize=auto;html=1;exitX=0.5;exitY=1;exitDx=0;exitDy=0;" parent="1" source="jd0kTKe9EwgRE9TUMlQJ-2" target="jd0kTKe9EwgRE9TUMlQJ-4" edge="1">
          <mxGeometry relative="1" as="geometry" />
        </mxCell>
        <mxCell id="jd0kTKe9EwgRE9TUMlQJ-22" style="edgeStyle=orthogonalEdgeStyle;rounded=0;orthogonalLoop=1;jettySize=auto;html=1;exitX=0.5;exitY=1;exitDx=0;exitDy=0;entryX=0;entryY=0;entryDx=0;entryDy=0;" parent="1" source="jd0kTKe9EwgRE9TUMlQJ-2" target="jd0kTKe9EwgRE9TUMlQJ-5" edge="1">
          <mxGeometry relative="1" as="geometry" />
        </mxCell>
        <mxCell id="jd0kTKe9EwgRE9TUMlQJ-2" value="&lt;font style=&quot;font-size: 20px;&quot;&gt;API Gateway&lt;/font&gt;" style="text;strokeColor=none;align=center;fillColor=none;html=1;verticalAlign=middle;whiteSpace=wrap;rounded=0;fontSize=20;" parent="1" vertex="1">
          <mxGeometry x="320" y="35" width="280" height="35" as="geometry" />
        </mxCell>
        <mxCell id="jd0kTKe9EwgRE9TUMlQJ-3" value="" style="rounded=1;whiteSpace=wrap;html=1;" parent="1" vertex="1">
          <mxGeometry x="10" y="180" width="120" height="60" as="geometry" />
        </mxCell>
        <mxCell id="jd0kTKe9EwgRE9TUMlQJ-4" value="" style="rounded=1;whiteSpace=wrap;html=1;" parent="1" vertex="1">
          <mxGeometry x="720" y="457.5" width="120" height="60" as="geometry" />
        </mxCell>
        <mxCell id="jd0kTKe9EwgRE9TUMlQJ-5" value="" style="rounded=1;whiteSpace=wrap;html=1;" parent="1" vertex="1">
          <mxGeometry x="10" y="457.5" width="120" height="60" as="geometry" />
        </mxCell>
        <mxCell id="jd0kTKe9EwgRE9TUMlQJ-6" value="" style="rounded=1;whiteSpace=wrap;html=1;" parent="1" vertex="1">
          <mxGeometry x="720" y="180" width="120" height="60" as="geometry" />
        </mxCell>
        <mxCell id="jd0kTKe9EwgRE9TUMlQJ-7" value="&lt;font style=&quot;font-size: 18px;&quot;&gt;Auth/User&lt;/font&gt;" style="text;strokeColor=none;align=center;fillColor=none;html=1;verticalAlign=middle;whiteSpace=wrap;rounded=0;" parent="1" vertex="1">
          <mxGeometry x="10" y="192.5" width="120" height="37.5" as="geometry" />
        </mxCell>
        <mxCell id="jd0kTKe9EwgRE9TUMlQJ-8" value="&lt;font style=&quot;font-size: 18px;&quot;&gt;Product&lt;/font&gt;" style="text;strokeColor=none;align=center;fillColor=none;html=1;verticalAlign=middle;whiteSpace=wrap;rounded=0;" parent="1" vertex="1">
          <mxGeometry x="20" y="470" width="100" height="35" as="geometry" />
        </mxCell>
        <mxCell id="jd0kTKe9EwgRE9TUMlQJ-9" value="&lt;font style=&quot;font-size: 18px;&quot;&gt;Orders&lt;/font&gt;" style="text;strokeColor=none;align=center;fillColor=none;html=1;verticalAlign=middle;whiteSpace=wrap;rounded=0;" parent="1" vertex="1">
          <mxGeometry x="730" y="470" width="100" height="35" as="geometry" />
        </mxCell>
        <mxCell id="jd0kTKe9EwgRE9TUMlQJ-10" value="&lt;span style=&quot;font-size: 18px;&quot;&gt;Cart&lt;/span&gt;" style="text;strokeColor=none;align=center;fillColor=none;html=1;verticalAlign=middle;whiteSpace=wrap;rounded=0;" parent="1" vertex="1">
          <mxGeometry x="730" y="192.5" width="100" height="35" as="geometry" />
        </mxCell>
        <mxCell id="jd0kTKe9EwgRE9TUMlQJ-26" style="edgeStyle=orthogonalEdgeStyle;rounded=0;orthogonalLoop=1;jettySize=auto;html=1;exitX=0.5;exitY=1;exitDx=0;exitDy=0;exitPerimeter=0;entryX=1;entryY=0.75;entryDx=0;entryDy=0;strokeColor=#ff0000;" parent="1" source="jd0kTKe9EwgRE9TUMlQJ-17" target="jd0kTKe9EwgRE9TUMlQJ-5" edge="1">
          <mxGeometry relative="1" as="geometry">
            <Array as="points">
              <mxPoint x="175" y="503" />
            </Array>
          </mxGeometry>
        </mxCell>
        <mxCell id="jd0kTKe9EwgRE9TUMlQJ-30" style="edgeStyle=orthogonalEdgeStyle;rounded=0;orthogonalLoop=1;jettySize=auto;html=1;exitX=0.5;exitY=0;exitDx=0;exitDy=0;exitPerimeter=0;entryX=0.5;entryY=1;entryDx=0;entryDy=0;strokeColor=#ff0000;" parent="1" source="jd0kTKe9EwgRE9TUMlQJ-17" target="jd0kTKe9EwgRE9TUMlQJ-6" edge="1">
          <mxGeometry relative="1" as="geometry">
            <Array as="points">
              <mxPoint x="740" y="345" />
              <mxPoint x="740" y="240" />
            </Array>
          </mxGeometry>
        </mxCell>
        <mxCell id="jd0kTKe9EwgRE9TUMlQJ-41" style="edgeStyle=orthogonalEdgeStyle;rounded=0;orthogonalLoop=1;jettySize=auto;html=1;exitX=0.5;exitY=1;exitDx=0;exitDy=0;exitPerimeter=0;entryX=1;entryY=0.5;entryDx=0;entryDy=0;strokeColor=#0008ff;" parent="1" source="jd0kTKe9EwgRE9TUMlQJ-17" target="jd0kTKe9EwgRE9TUMlQJ-5" edge="1">
          <mxGeometry relative="1" as="geometry" />
        </mxCell>
        <mxCell id="jd0kTKe9EwgRE9TUMlQJ-43" style="edgeStyle=orthogonalEdgeStyle;rounded=0;orthogonalLoop=1;jettySize=auto;html=1;exitX=0.145;exitY=0;exitDx=0;exitDy=4.35;exitPerimeter=0;entryX=0;entryY=0.5;entryDx=0;entryDy=0;strokeColor=#0008ff;" parent="1" source="jd0kTKe9EwgRE9TUMlQJ-17" target="jd0kTKe9EwgRE9TUMlQJ-6" edge="1">
          <mxGeometry relative="1" as="geometry" />
        </mxCell>
        <mxCell id="jd0kTKe9EwgRE9TUMlQJ-51" style="edgeStyle=orthogonalEdgeStyle;rounded=0;orthogonalLoop=1;jettySize=auto;html=1;exitX=0.145;exitY=0;exitDx=0;exitDy=4.35;exitPerimeter=0;entryX=0;entryY=1;entryDx=0;entryDy=0;strokeColor=#04ff00;" parent="1" source="jd0kTKe9EwgRE9TUMlQJ-17" target="jd0kTKe9EwgRE9TUMlQJ-6" edge="1">
          <mxGeometry relative="1" as="geometry" />
        </mxCell>
        <mxCell id="jd0kTKe9EwgRE9TUMlQJ-52" style="edgeStyle=orthogonalEdgeStyle;rounded=0;orthogonalLoop=1;jettySize=auto;html=1;exitX=0.855;exitY=0;exitDx=0;exitDy=4.35;exitPerimeter=0;entryX=0.75;entryY=0;entryDx=0;entryDy=0;strokeColor=#1AFF00;" parent="1" source="jd0kTKe9EwgRE9TUMlQJ-17" target="jd0kTKe9EwgRE9TUMlQJ-4" edge="1">
          <mxGeometry relative="1" as="geometry" />
        </mxCell>
        <mxCell id="jd0kTKe9EwgRE9TUMlQJ-17" value="" style="shape=cylinder3;whiteSpace=wrap;html=1;boundedLbl=1;backgroundOutline=1;size=15;direction=south;fontColor=#ed0707;" parent="1" vertex="1">
          <mxGeometry x="175" y="240" width="500" height="210" as="geometry" />
        </mxCell>
        <mxCell id="jd0kTKe9EwgRE9TUMlQJ-19" style="edgeStyle=orthogonalEdgeStyle;rounded=0;orthogonalLoop=1;jettySize=auto;html=1;exitX=0.5;exitY=1;exitDx=0;exitDy=0;entryX=0.083;entryY=-0.112;entryDx=0;entryDy=0;entryPerimeter=0;" parent="1" source="jd0kTKe9EwgRE9TUMlQJ-2" target="jd0kTKe9EwgRE9TUMlQJ-3" edge="1">
          <mxGeometry relative="1" as="geometry" />
        </mxCell>
        <mxCell id="jd0kTKe9EwgRE9TUMlQJ-24" style="edgeStyle=orthogonalEdgeStyle;rounded=0;orthogonalLoop=1;jettySize=auto;html=1;exitX=1;exitY=1;exitDx=0;exitDy=0;entryX=0.5;entryY=1;entryDx=0;entryDy=0;entryPerimeter=0;strokeColor=#FF0D0D;" parent="1" source="jd0kTKe9EwgRE9TUMlQJ-7" target="jd0kTKe9EwgRE9TUMlQJ-17" edge="1">
          <mxGeometry relative="1" as="geometry" />
        </mxCell>
        <mxCell id="jd0kTKe9EwgRE9TUMlQJ-27" value="&lt;font style=&quot;font-size: 18px;&quot;&gt;Signup/User update&lt;/font&gt;" style="text;strokeColor=none;align=center;fillColor=none;html=1;verticalAlign=middle;whiteSpace=wrap;rounded=0;" parent="1" vertex="1">
          <mxGeometry x="60" y="640" width="190" height="30" as="geometry" />
        </mxCell>
        <mxCell id="jd0kTKe9EwgRE9TUMlQJ-29" value="" style="line;strokeWidth=2;html=1;strokeColor=#ff0000;" parent="1" vertex="1">
          <mxGeometry x="260" y="650" width="160" height="10" as="geometry" />
        </mxCell>
        <mxCell id="jd0kTKe9EwgRE9TUMlQJ-31" style="edgeStyle=orthogonalEdgeStyle;rounded=0;orthogonalLoop=1;jettySize=auto;html=1;exitX=0.5;exitY=0;exitDx=0;exitDy=0;exitPerimeter=0;entryX=0.643;entryY=0.025;entryDx=0;entryDy=0;entryPerimeter=0;strokeColor=#ff0000;" parent="1" source="jd0kTKe9EwgRE9TUMlQJ-17" target="jd0kTKe9EwgRE9TUMlQJ-4" edge="1">
          <mxGeometry relative="1" as="geometry">
            <Array as="points">
              <mxPoint x="740" y="345" />
              <mxPoint x="740" y="459" />
            </Array>
          </mxGeometry>
        </mxCell>
        <mxCell id="jd0kTKe9EwgRE9TUMlQJ-32" value="" style="shape=waypoint;sketch=0;fillStyle=solid;size=6;pointerEvents=1;points=[];fillColor=none;resizable=0;rotatable=0;perimeter=centerPerimeter;snapToPoint=1;" parent="1" vertex="1">
          <mxGeometry x="30" y="645" width="20" height="20" as="geometry" />
        </mxCell>
        <mxCell id="jd0kTKe9EwgRE9TUMlQJ-40" style="edgeStyle=orthogonalEdgeStyle;rounded=0;orthogonalLoop=1;jettySize=auto;html=1;exitX=0;exitY=0.5;exitDx=0;exitDy=0;entryX=0.5;entryY=0;entryDx=0;entryDy=0;entryPerimeter=0;strokeColor=#0008ff;" parent="1" source="jd0kTKe9EwgRE9TUMlQJ-4" target="jd0kTKe9EwgRE9TUMlQJ-17" edge="1">
          <mxGeometry relative="1" as="geometry" />
        </mxCell>
        <mxCell id="jd0kTKe9EwgRE9TUMlQJ-44" value="&lt;font style=&quot;font-size: 18px;&quot;&gt;Add Order&lt;/font&gt;" style="text;strokeColor=none;align=center;fillColor=none;html=1;verticalAlign=middle;whiteSpace=wrap;rounded=0;" parent="1" vertex="1">
          <mxGeometry x="50" y="680" width="140" height="30" as="geometry" />
        </mxCell>
        <mxCell id="jd0kTKe9EwgRE9TUMlQJ-45" value="" style="shape=waypoint;sketch=0;fillStyle=solid;size=6;pointerEvents=1;points=[];fillColor=none;resizable=0;rotatable=0;perimeter=centerPerimeter;snapToPoint=1;" parent="1" vertex="1">
          <mxGeometry x="30" y="685" width="20" height="20" as="geometry" />
        </mxCell>
        <mxCell id="jd0kTKe9EwgRE9TUMlQJ-46" value="" style="line;strokeWidth=2;html=1;strokeColor=#3333FF;" parent="1" vertex="1">
          <mxGeometry x="260" y="670" width="160" height="40" as="geometry" />
        </mxCell>
        <mxCell id="jd0kTKe9EwgRE9TUMlQJ-47" style="edgeStyle=orthogonalEdgeStyle;rounded=0;orthogonalLoop=1;jettySize=auto;html=1;exitX=0.5;exitY=0;exitDx=0;exitDy=0;entryX=0.5;entryY=1;entryDx=0;entryDy=0;entryPerimeter=0;strokeColor=#04ff00;" parent="1" source="jd0kTKe9EwgRE9TUMlQJ-5" target="jd0kTKe9EwgRE9TUMlQJ-17" edge="1">
          <mxGeometry relative="1" as="geometry">
            <Array as="points">
              <mxPoint x="70" y="390" />
              <mxPoint x="175" y="390" />
            </Array>
          </mxGeometry>
        </mxCell>
        <mxCell id="jd0kTKe9EwgRE9TUMlQJ-48" value="&lt;font style=&quot;font-size: 18px;&quot;&gt;Add/update/delete product&lt;/font&gt;" style="text;strokeColor=none;align=center;fillColor=none;html=1;verticalAlign=middle;whiteSpace=wrap;rounded=0;" parent="1" vertex="1">
          <mxGeometry x="50" y="720" width="220" height="30" as="geometry" />
        </mxCell>
        <mxCell id="jd0kTKe9EwgRE9TUMlQJ-49" value="" style="shape=waypoint;sketch=0;fillStyle=solid;size=6;pointerEvents=1;points=[];fillColor=none;resizable=0;rotatable=0;perimeter=centerPerimeter;snapToPoint=1;" parent="1" vertex="1">
          <mxGeometry x="30" y="725" width="20" height="20" as="geometry" />
        </mxCell>
        <mxCell id="jd0kTKe9EwgRE9TUMlQJ-50" value="" style="line;strokeWidth=2;html=1;strokeColor=#00ff11;" parent="1" vertex="1">
          <mxGeometry x="270" y="710" width="160" height="40" as="geometry" />
        </mxCell>
        <mxCell id="jd0kTKe9EwgRE9TUMlQJ-53" value="" style="shape=cylinder3;whiteSpace=wrap;html=1;boundedLbl=1;backgroundOutline=1;size=15;" parent="1" vertex="1">
          <mxGeometry x="140" y="150" width="70" height="50" as="geometry" />
        </mxCell>
        <mxCell id="jd0kTKe9EwgRE9TUMlQJ-54" value="" style="shape=cylinder3;whiteSpace=wrap;html=1;boundedLbl=1;backgroundOutline=1;size=15;" parent="1" vertex="1">
          <mxGeometry x="510" y="150" width="70" height="50" as="geometry" />
        </mxCell>
        <mxCell id="jd0kTKe9EwgRE9TUMlQJ-55" value="" style="shape=cylinder3;whiteSpace=wrap;html=1;boundedLbl=1;backgroundOutline=1;size=15;" parent="1" vertex="1">
          <mxGeometry x="630" y="530" width="70" height="50" as="geometry" />
        </mxCell>
        <mxCell id="jd0kTKe9EwgRE9TUMlQJ-56" value="" style="shape=cylinder3;whiteSpace=wrap;html=1;boundedLbl=1;backgroundOutline=1;size=15;" parent="1" vertex="1">
          <mxGeometry x="30" y="540" width="70" height="50" as="geometry" />
        </mxCell>
        <mxCell id="jd0kTKe9EwgRE9TUMlQJ-57" value="&lt;span style=&quot;font-size: 18px;&quot;&gt;User DB&lt;/span&gt;" style="text;strokeColor=none;align=center;fillColor=none;html=1;verticalAlign=middle;whiteSpace=wrap;rounded=0;" parent="1" vertex="1">
          <mxGeometry x="210" y="140" width="80" height="30" as="geometry" />
        </mxCell>
        <mxCell id="jd0kTKe9EwgRE9TUMlQJ-58" value="&lt;span style=&quot;font-size: 18px;&quot;&gt;User DB&lt;/span&gt;" style="text;strokeColor=none;align=center;fillColor=none;html=1;verticalAlign=middle;whiteSpace=wrap;rounded=0;" parent="1" vertex="1">
          <mxGeometry x="580" y="140" width="80" height="30" as="geometry" />
        </mxCell>
        <mxCell id="jd0kTKe9EwgRE9TUMlQJ-59" value="&lt;span style=&quot;font-size: 18px;&quot;&gt;User DB&lt;/span&gt;" style="text;strokeColor=none;align=center;fillColor=none;html=1;verticalAlign=middle;whiteSpace=wrap;rounded=0;" parent="1" vertex="1">
          <mxGeometry x="710" y="535" width="80" height="30" as="geometry" />
        </mxCell>
        <mxCell id="jd0kTKe9EwgRE9TUMlQJ-60" value="&lt;span style=&quot;font-size: 18px;&quot;&gt;User DB&lt;/span&gt;" style="text;strokeColor=none;align=center;fillColor=none;html=1;verticalAlign=middle;whiteSpace=wrap;rounded=0;" parent="1" vertex="1">
          <mxGeometry x="100" y="530" width="80" height="30" as="geometry" />
        </mxCell>
        <mxCell id="jd0kTKe9EwgRE9TUMlQJ-61" value="&lt;span style=&quot;font-size: 18px;&quot;&gt;Cart DB&lt;/span&gt;" style="text;strokeColor=none;align=center;fillColor=none;html=1;verticalAlign=middle;whiteSpace=wrap;rounded=0;" parent="1" vertex="1">
          <mxGeometry x="580" y="160" width="80" height="30" as="geometry" />
        </mxCell>
        <mxCell id="jd0kTKe9EwgRE9TUMlQJ-62" value="&lt;span style=&quot;font-size: 18px;&quot;&gt;Product DB&lt;/span&gt;" style="text;strokeColor=none;align=center;fillColor=none;html=1;verticalAlign=middle;whiteSpace=wrap;rounded=0;" parent="1" vertex="1">
          <mxGeometry x="580" y="180" width="100" height="30" as="geometry" />
        </mxCell>
        <mxCell id="jd0kTKe9EwgRE9TUMlQJ-64" value="&lt;span style=&quot;font-size: 18px;&quot;&gt;Product DB&lt;/span&gt;" style="text;strokeColor=none;align=center;fillColor=none;html=1;verticalAlign=middle;whiteSpace=wrap;rounded=0;" parent="1" vertex="1">
          <mxGeometry x="710" y="565" width="100" height="30" as="geometry" />
        </mxCell>
        <mxCell id="jd0kTKe9EwgRE9TUMlQJ-65" value="&lt;span style=&quot;font-size: 18px;&quot;&gt;Product DB&lt;/span&gt;" style="text;strokeColor=none;align=center;fillColor=none;html=1;verticalAlign=middle;whiteSpace=wrap;rounded=0;" parent="1" vertex="1">
          <mxGeometry x="100" y="560" width="100" height="30" as="geometry" />
        </mxCell>
        <mxCell id="jd0kTKe9EwgRE9TUMlQJ-70" value="&lt;span style=&quot;font-size: 18px;&quot;&gt;ACL&lt;/span&gt;" style="text;strokeColor=none;align=center;fillColor=none;html=1;verticalAlign=middle;whiteSpace=wrap;rounded=0;" parent="1" vertex="1">
          <mxGeometry x="570" y="40" width="80" height="30" as="geometry" />
        </mxCell>
        <mxCell id="jd0kTKe9EwgRE9TUMlQJ-71" value="&lt;span style=&quot;font-size: 18px;&quot;&gt;Security layer&lt;/span&gt;" style="text;strokeColor=none;align=center;fillColor=none;html=1;verticalAlign=middle;whiteSpace=wrap;rounded=0;" parent="1" vertex="1">
          <mxGeometry x="210" y="40" width="130" height="30" as="geometry" />
        </mxCell>
        <mxCell id="jd0kTKe9EwgRE9TUMlQJ-73" value="&lt;span style=&quot;font-size: 18px;&quot;&gt;Orders DB&lt;/span&gt;" style="text;strokeColor=none;align=center;fillColor=none;html=1;verticalAlign=middle;whiteSpace=wrap;rounded=0;" parent="1" vertex="1">
          <mxGeometry x="710" y="590" width="100" height="30" as="geometry" />
        </mxCell>
      </root>
    </mxGraphModel>
  </diagram>
</mxfile>
